<?xml version="1.0" standalone="no"?>
<!DOCTYPE svg PUBLIC "-//W3C//DTD SVG 20010904//EN"
 "http://www.w3.org/TR/2001/REC-SVG-20010904/DTD/svg10.dtd">
<svg version="1.0" xmlns="http://www.w3.org/2000/svg"
 width="50.000000pt" height="50.000000pt" viewBox="0 0 50.000000 50.000000"
 preserveAspectRatio="xMidYMid meet">

<g transform="translate(0.000000,50.000000) scale(0.100000,-0.100000)"
fill="white" stroke="none" >
<path d="M212 421 c-31 -75 -34 -79 -70 -85 -20 -3 -58 -6 -84 -6 -26 0 -49
-4 -52 -9 -3 -4 24 -32 59 -61 36 -28 65 -57 65 -63 0 -7 -9 -46 -20 -87 -11
-41 -20 -76 -20 -77 -1 -11 32 4 91 42 l69 45 70 -45 c60 -38 91 -53 90 -42 0
1 -9 36 -20 77 -11 41 -20 80 -20 86 0 6 29 34 65 63 36 29 62 57 59 62 -3 5
-31 10 -62 10 -107 2 -111 5 -145 92 -16 42 -33 77 -37 77 -3 0 -21 -35 -38
-79z"/>
</g>
</svg>
